HIERARCHY
ROOT Hips
{
  OFFSET 0 89.5177 0.535
  CHANNELS 6 Xposition Yposition Zposition Zrotation Xrotation Yrotation
  JOINT Spine
  {
    OFFSET 12.0259 -0.162855 1.69034e-005
    CHANNELS 3 Zrotation Xrotation Yrotation
    JOINT Spine1
    {
      OFFSET 15.3169 -0.0121922 0
      CHANNELS 3 Zrotation Xrotation Yrotation
      JOINT Spine2
      {
        OFFSET 15.3176 -0.0121908 0
        CHANNELS 3 Zrotation Xrotation Yrotation
        JOINT Neck
        {
          OFFSET 19.9142 1.56338 0
          CHANNELS 3 Zrotation Xrotation Yrotation
          JOINT Head
          {
            OFFSET 6.92651 0 0
            CHANNELS 3 Zrotation Xrotation Yrotation
            End Site
            {
              OFFSET 20.7666 0 0
            }
          }
          JOINT LeftShoulder
          {
            OFFSET -6.20654 0.708824 7.28219
            CHANNELS 3 Zrotation Xrotation Yrotation
            JOINT LeftArm
            {
              OFFSET 14.108 0 -1.52588e-005
              CHANNELS 3 Zrotation Xrotation Yrotation
              JOINT LeftForeArm
              {
                OFFSET 28.5802 0 0
                CHANNELS 3 Zrotation Xrotation Yrotation
                JOINT LeftHand
                {
                  OFFSET 27.092 0 0
                  CHANNELS 3 Zrotation Xrotation Yrotation
                  End Site
                  {
                    OFFSET 9.55928 -0.186424 0.145352
                  }
                }
              }
            }
          }
          JOINT RightShoulder
          {
            OFFSET -6.20654 0.708866 -7.28218
            CHANNELS 3 Zrotation Xrotation Yrotation
            JOINT RightArm
            {
              OFFSET 14.108 0 1.52588e-005
              CHANNELS 3 Zrotation Xrotation Yrotation
              JOINT RightForeArm
              {
                OFFSET 28.5802 0 0
                CHANNELS 3 Zrotation Xrotation Yrotation
                JOINT RightHand
                {
                  OFFSET 27.092 0 0
                  CHANNELS 3 Zrotation Xrotation Yrotation
                  End Site
                  {
                    OFFSET 9.55929 -0.186417 -0.145354
                  }
                }
              }
            }
          }
        }
      }
    }
  }
  JOINT LeftUpLeg
  {
    OFFSET 0.005 -0.535 8.837
    CHANNELS 3 Zrotation Xrotation Yrotation
    JOINT LeftLeg
    {
      OFFSET 39.9035 0 0
      CHANNELS 3 Zrotation Xrotation Yrotation
      JOINT LeftFoot
      {
        OFFSET 39.6689 0 0
        CHANNELS 3 Zrotation Xrotation Yrotation
        JOINT LeftToe
        {
          OFFSET 10.1624 13.6296 0
          CHANNELS 3 Zrotation Xrotation Yrotation
          End Site
          {
            OFFSET 8.38147 0 0
          }
        }
      }
    }
  }
  JOINT RightUpLeg
  {
    OFFSET 0.005 -0.535 -8.837
    CHANNELS 3 Zrotation Xrotation Yrotation
    JOINT RightLeg
    {
      OFFSET 39.9035 0 0
      CHANNELS 3 Zrotation Xrotation Yrotation
      JOINT RightFoot
      {
        OFFSET 39.6689 0 0
        CHANNELS 3 Zrotation Xrotation Yrotation
        JOINT RightToe
        {
          OFFSET 10.1624 13.6296 0
          CHANNELS 3 Zrotation Xrotation Yrotation
          End Site
          {
            OFFSET 8.38147 0 0
          }
        }
      }
    }
  }
}
MOTION
Frames:	19
Frame Time:	0.0333333
122.286 88.1365 -193.758 -171.597 -86.8898 100.104 -0.0424654 -1.28543 -1.10431 -0.109724 -2.56787 -2.21024 -0.109724 -2.56787 -2.21025 -8.30788e-012 -9.0191e-006 -5.27751e-005 13.6451 0.164921 0.884836 -178.407 -29.4193 -86.7587 -27.6143 -45.1446 4.64732 -11.7877 -9.54166e-015 -0 -29.5963 -54.3795 -33.1288 -178.939 21.8165 87.1473 -37.3275 37.2651 2.72046 -5.81668 0 -0 -64.7808 67.8548 67.9075 -7.86963 9.11152 -179.71 -18.6257 -1.59028e-015 -1.19271e-015 15.0531 5.94286 -1.73146 90 0 3.97569e-016 -12.4039 -8.14869 173.586 -21.8194 -1.59028e-015 3.97569e-016 12.9888 -2.89479 3.35346 90 -1.40286e-020 7.95139e-016 
122.296 88.1382 -193.76 -172.94 -86.8835 98.7586 -0.0384903 -1.28771 -1.11322 -0.102033 -2.57396 -2.22797 -0.102033 -2.57396 -2.22798 -8.30708e-012 -9.0191e-006 -5.27751e-005 13.6667 0.0624689 1.01321 -178.405 -29.4125 -86.7555 -27.6561 -45.0698 4.64375 -11.794 -3.18055e-015 3.18055e-015 -29.6944 -54.3578 -33.2291 -178.926 21.8448 87.1147 -37.3228 37.1435 2.69664 -5.90887 9.54166e-015 1.59028e-015 -64.8969 67.8381 68.0331 -7.89981 9.06493 -179.699 -18.6334 -3.18055e-015 -0 15.0284 5.96837 -1.77803 90 -2.48481e-017 7.95139e-016 -12.3937 -8.15129 173.592 -21.7992 -4.77083e-015 -1.59028e-015 12.9917 -2.8469 3.35193 90 7.58303e-021 -0 
122.294 88.137 -193.766 -173.398 -86.8564 98.2916 -0.0431007 -1.28235 -1.11124 -0.110667 -2.56316 -2.22411 -0.110667 -2.56316 -2.22412 -8.30708e-012 -9.0191e-006 -5.27751e-005 13.7253 0.0418966 1.05229 -178.373 -29.3849 -86.6876 -27.6422 -45.0434 4.66892 -11.8021 0 -3.18055e-015 -29.5619 -54.3617 -33.0898 -178.913 21.8518 87.0823 -37.3856 37.2156 2.7336 -5.92919 0 1.59028e-015 -64.8109 67.8573 67.949 -7.94286 9.06643 -179.691 -18.6604 0 7.95139e-016 15.0654 5.98091 -1.76625 90 -2.48481e-017 7.95139e-016 -12.4159 -8.20589 173.591 -21.7931 -4.77083e-015 -1.98785e-015 12.9963 -2.87144 3.35139 90 3.15454e-019 7.95139e-016 
122.294 88.1359 -193.772 -173.2 -86.8235 98.4759 -0.0479315 -1.27398 -1.11316 -0.120608 -2.54632 -2.22675 -0.120609 -2.54632 -2.22675 -8.30708e-012 -9.0191e-006 -5.27751e-005 13.7874 0.00894889 1.06158 -178.381 -29.4137 -86.7068 -27.5815 -45.0985 4.83973 -11.8362 -9.54166e-015 -0 -29.6204 -54.4396 -33.1625 -178.912 21.8404 87.0773 -37.3829 37.123 2.66931 -5.92077 3.18055e-015 -0 -64.8708 67.8633 68.0048 -7.97111 9.0679 -179.676 -18.6637 1.59028e-015 3.97569e-016 15.0774 5.97787 -1.74749 90 1.2424e-017 3.97569e-016 -12.4329 -8.15295 173.616 -21.7807 -3.18056e-015 3.97569e-016 12.9918 -2.84885 3.35077 90 1.00703e-018 1.59028e-015 
122.294 88.1353 -193.784 -173.187 -86.8177 98.4905 -0.048291 -1.27017 -1.11679 -0.120941 -2.53874 -2.23394 -0.120941 -2.53874 -2.23395 -8.30748e-012 -9.0191e-006 -5.27751e-005 13.7861 -0.0442985 1.06732 -178.354 -29.3894 -86.6492 -27.5659 -44.9141 4.82002 -11.8492 6.36111e-015 -0 -29.565 -54.4282 -33.1024 -178.902 21.8286 87.0486 -37.4301 37.1494 2.64444 -5.87325 -6.36111e-015 -1.59028e-015 -64.8472 67.8634 67.9769 -7.95763 9.0463 -179.683 -18.6418 1.59028e-015 -0 15.067 5.95564 -1.73608 90 4.96962e-017 3.97569e-016 -12.4277 -8.15887 173.616 -21.7838 -1.59028e-015 3.97569e-016 13.0053 -2.83317 3.35033 90 3.3972e-019 -0 
122.294 88.1342 -193.796 -173.215 -86.7984 98.4563 -0.0485845 -1.26764 -1.11897 -0.121048 -2.53384 -2.23966 -0.121048 -2.53384 -2.23967 -8.30669e-012 -9.0191e-006 -5.27751e-005 13.766 0.0364524 1.03184 -178.375 -29.3983 -86.6932 -27.5048 -45.013 4.94221 -11.7732 -3.18055e-015 -0 -29.526 -54.4206 -33.0603 -178.903 21.7924 87.0464 -37.3815 37.125 2.55748 -5.89265 3.18055e-015 -7.95139e-016 -64.7649 67.8909 67.8909 -7.97719 9.04487 -179.67 -18.6556 0 -3.97569e-016 15.0841 5.96195 -1.74713 90 0 -1.19271e-015 -12.4414 -8.19477 173.617 -21.7825 1.59028e-015 7.95139e-016 13.0127 -2.86191 3.35026 90 3.89768e-019 -1.59028e-015 
122.295 88.1334 -193.821 -173.175 -86.8092 98.4887 -0.0487894 -1.26531 -1.11934 -0.111473 -2.52907 -2.23123 -0.111473 -2.52907 -2.23123 -8.30748e-012 -9.0191e-006 -5.27751e-005 13.7415 -0.0134254 0.955888 -178.32 -29.3885 -86.5796 -27.5499 -45.012 4.83431 -11.7105 -6.36111e-015 -1.59028e-015 -29.4761 -54.3942 -33.0122 -178.916 21.7922 87.0835 -37.392 37.173 2.48687 -5.87155 -3.18055e-015 -0 -64.7734 67.9043 67.8957 -7.95173 9.05507 -179.663 -18.6602 0 -0 15.1067 5.97052 -1.74997 90 -9.93923e-017 -7.95139e-016 -12.4036 -8.20522 173.62 -21.7701 -1.59028e-015 -0 13.0272 -2.872 3.35651 90 -4.2465e-020 -7.95139e-016 
122.295 88.1324 -193.837 -173.238 -86.789 98.4255 -0.0489417 -1.26272 -1.11964 -0.114991 -2.52385 -2.23475 -0.114991 -2.52385 -2.23476 -8.30708e-012 -9.0191e-006 -5.27751e-005 13.7241 0.0619421 0.865249 -178.288 -29.3907 -86.5143 -27.6748 -44.9426 4.63058 -11.622 0 -0 -29.3815 -54.3912 -32.907 -178.929 21.8118 87.1201 -37.4322 37.1464 2.45035 -5.80205 9.54166e-015 -7.95139e-016 -64.6881 67.9316 67.8098 -7.95936 9.05565 -179.663 -18.6579 -3.18055e-015 -0 15.1119 5.97141 -1.75531 90 1.2424e-017 -0 -12.4133 -8.17199 173.622 -21.7672 -1.59028e-015 -3.97569e-016 13.0318 -2.8516 3.36571 90 -9.47879e-022 -0 
122.295 88.1314 -193.866 -173.263 -86.7894 98.4046 -0.0489319 -1.25396 -1.11988 -0.116953 -2.50639 -2.25417 -0.116953 -2.50639 -2.25418 -8.30669e-012 -9.0191e-006 -5.27751e-005 13.6811 -0.066014 0.915456 -178.331 -29.3352 -86.597 -27.5227 -44.9255 4.63142 -11.7238 -1.27222e-014 3.18055e-015 -29.4792 -54.4075 -33.0092 -178.917 21.8263 87.0893 -37.4491 37.0129 2.53078 -5.776 -9.54166e-015 -1.59028e-015 -64.6538 67.9673 67.7713 -7.93554 9.06156 -179.668 -18.6519 0 -3.97569e-016 15.1267 5.97183 -1.76939 90 -7.45443e-017 -7.95139e-016 -12.4042 -8.23683 173.614 -21.7772 -3.18056e-015 -3.97569e-016 13.0565 -2.88696 3.3606 90 -3.79152e-022 -1.59028e-015 
122.295 88.1302 -193.885 -173.358 -86.7577 98.2898 -0.0490289 -1.25245 -1.12007 -0.117643 -2.50176 -2.24194 -0.117643 -2.50176 -2.24195 -8.30748e-012 -9.0191e-006 -5.27751e-005 13.5943 -0.00227193 0.845392 -178.296 -29.41 -86.534 -27.6613 -44.9233 4.45092 -11.7299 0 -4.77083e-015 -29.5476 -54.424 -33.0833 -178.921 21.8576 87.104 -37.5133 36.9556 2.6294 -5.80721 -1.27222e-014 -3.18055e-015 -64.691 67.9296 67.811 -7.96366 9.06279 -179.651 -18.6689 -1.59028e-015 -3.97569e-016 15.1526 5.972 -1.77016 90 6.21202e-017 3.97569e-016 -12.4005 -8.15083 173.639 -21.7475 -1.59028e-015 -0 13.0525 -2.83686 3.37442 90 -1.06162e-020 -7.95139e-016 
122.29 88.1291 -193.91 -173.657 -86.7337 97.9855 -0.0491004 -1.25112 -1.12022 -0.118044 -2.50383 -2.23624 -0.118044 -2.50383 -2.23625 -8.30669e-012 -9.0191e-006 -5.27751e-005 13.6081 0.108811 0.782804 -178.287 -29.4089 -86.5155 -27.7094 -45.0198 4.29562 -11.7246 9.54166e-015 3.18055e-015 -29.5303 -54.3611 -33.0565 -178.924 21.8676 87.1124 -37.6307 37.0971 2.76736 -5.81329 0 2.38542e-015 -64.7199 67.9041 67.8413 -7.97278 9.04903 -179.648 -18.6657 -1.59028e-015 -7.95139e-016 15.1544 5.97203 -1.77026 90 -2.48481e-017 7.95139e-016 -12.4 -8.16377 173.644 -21.7381 0 3.97569e-016 13.0682 -2.82168 3.37743 90 2.3697e-020 7.95139e-016 
122.281 88.1278 -193.938 -173.947 -86.7225 97.6976 -0.0491526 -1.24997 -1.12034 -0.117694 -2.50765 -2.23664 -0.117694 -2.50765 -2.23665 -8.30788e-012 -9.0191e-006 -5.27751e-005 13.6382 0.0506944 0.839654 -178.29 -29.4216 -86.5218 -27.7186 -45.0173 4.22604 -11.7806 -3.18055e-015 1.59028e-015 -29.5882 -54.3439 -33.1152 -178.922 21.9017 87.1132 -37.698 37.004 2.8528 -5.85959 0 -7.95139e-016 -64.7771 67.8943 67.8961 -7.96197 9.04135 -179.66 -18.6557 -1.59028e-015 -3.97569e-016 15.1646 5.96902 -1.76609 90 -8.69683e-017 -7.95139e-016 -12.3948 -8.21689 173.627 -21.7367 -1.59028e-015 -0 13.0906 -2.86139 3.3867 90 2.65406e-021 -0 
122.269 88.1267 -193.967 -174.437 -86.7007 97.2004 -0.0491919 -1.24899 -1.12042 -0.130908 -2.50971 -2.23764 -0.130908 -2.50971 -2.23765 -8.30828e-012 -9.0191e-006 -5.27751e-005 13.6953 0.0158678 0.851104 -178.305 -29.4433 -86.5542 -27.7444 -45.1316 4.24865 -11.7699 0 3.18055e-015 -29.591 -54.3635 -33.1135 -178.921 21.9164 87.1122 -37.782 37.1949 2.89874 -5.87833 0 -1.59028e-015 -64.7408 67.887 67.8619 -7.94812 8.98437 -179.675 -18.6208 1.59028e-015 -3.97569e-016 15.1627 5.93584 -1.72634 90 -6.21202e-017 7.95139e-016 -12.3859 -8.25322 173.623 -21.7199 -1.59028e-015 -0 13.1081 -2.8604 3.39726 90 -3.03321e-021 -1.59028e-015 
122.262 88.1258 -194.004 -174.367 -86.7283 97.2601 -0.0492243 -1.24819 -1.12048 -0.111007 -2.50778 -2.23901 -0.111007 -2.50778 -2.23902 -8.30828e-012 -9.0191e-006 -5.27751e-005 13.7071 0.0388831 0.86158 -178.28 -29.4817 -86.5089 -27.8257 -45.0527 4.21372 -11.7856 6.36111e-015 -0 -29.6354 -54.3728 -33.1634 -178.919 21.9249 87.1078 -37.8004 37.116 2.8815 -5.93563 0 -0 -64.8103 67.8975 67.9255 -7.91298 9.02149 -179.658 -18.6575 -1.59028e-015 -3.97569e-016 15.218 5.97755 -1.76217 90 2.48481e-017 -7.95139e-016 -12.3176 -8.23088 173.631 -21.6993 -1.59028e-015 -7.95139e-016 13.1241 -2.841 3.40914 90 2.46449e-020 -0 
122.246 88.1247 -194.027 -174.709 -86.7126 96.9175 -0.0492561 -1.24757 -1.12053 -0.1171 -2.52029 -2.24055 -0.1171 -2.52029 -2.24056 -8.30867e-012 -9.0191e-006 -5.27751e-005 13.7489 0.00293172 0.903962 -178.286 -29.5155 -86.5248 -27.878 -45.0737 4.28712 -11.7271 0 -0 -29.6186 -54.3777 -33.1519 -178.921 21.8607 87.1036 -37.7442 37.0464 2.7917 -5.95662 3.18055e-015 -0 -64.757 67.9228 67.8707 -7.92746 9.03161 -179.67 -18.6815 0 7.95139e-016 15.2384 5.98023 -1.78101 90 -6.21202e-017 7.95139e-016 -12.3215 -8.26774 173.61 -21.691 -3.18056e-015 -0 13.1335 -2.86718 3.42629 90 1.21329e-020 7.95139e-016 
122.24 88.1228 -194.06 -174.957 -86.7147 96.671 -0.0492934 -1.24713 -1.12056 -0.106518 -2.5183 -2.24197 -0.106518 -2.5183 -2.24198 -8.30669e-012 -9.0191e-006 -5.27751e-005 13.7074 0.00823206 0.922045 -178.279 -29.4821 -86.5065 -27.7955 -45.0514 4.44191 -11.776 1.27222e-014 -3.18055e-015 -29.6279 -54.4117 -33.1663 -178.902 21.874 87.0549 -37.7832 37.0715 2.73304 -5.9697 0 2.38542e-015 -64.7528 67.9254 67.8658 -7.91576 9.0275 -179.67 -18.7019 0 3.97569e-016 15.2731 6.00099 -1.80923 90 -6.21202e-017 3.97569e-016 -12.2977 -8.29888 173.599 -21.6933 1.59028e-015 1.19271e-015 13.1617 -2.87818 3.43363 90 1.21329e-020 1.59028e-015 
122.219 88.1202 -194.082 -174.81 -86.671 96.8195 -0.0493426 -1.24686 -1.1206 -0.123191 -2.50716 -2.24361 -0.123191 -2.50716 -2.24362 -8.30669e-012 -9.0191e-006 -5.27751e-005 13.6994 -0.0201294 0.921448 -178.296 -29.4195 -86.5347 -27.6014 -44.9141 4.69795 -11.8646 3.18055e-015 4.77083e-015 -29.5544 -54.4318 -33.0917 -178.892 21.8543 87.0263 -37.7569 37.027 2.62904 -5.90785 0 -7.95139e-016 -64.6811 67.9722 67.7908 -7.91892 8.97897 -179.694 -18.6667 0 3.97569e-016 15.2664 5.96118 -1.76983 90 -8.69683e-017 -3.97569e-016 -12.325 -8.28306 173.588 -21.6968 0 3.97569e-016 13.18 -2.87358 3.44847 90 2.72989e-020 1.59028e-015 
122.204 88.118 -194.112 -174.321 -86.6315 97.3081 -0.0494098 -1.24677 -1.12064 -0.130797 -2.49179 -2.24556 -0.130797 -2.49179 -2.24557 -8.30788e-012 -9.0191e-006 -5.27751e-005 13.6643 -0.0695838 0.939585 -178.265 -29.3936 -86.4681 -27.5848 -44.8815 4.77769 -11.829 -9.54166e-015 -3.18055e-015 -29.418 -54.4213 -32.9463 -178.89 21.8475 87.0185 -37.7193 36.9384 2.51579 -5.85255 -9.54166e-015 2.38542e-015 -64.6119 67.9804 67.7238 -7.92678 9.01074 -179.701 -18.6621 0 -0 15.2821 5.95593 -1.76756 90 1.11816e-016 3.97569e-016 -12.3548 -8.29809 173.574 -21.6976 -1.59028e-015 -3.97569e-016 13.1912 -2.91569 3.46264 90 7.58303e-022 -0 
122.188 88.1151 -194.151 -174.17 -86.6363 97.4709 -0.0495067 -1.24714 -1.12069 -0.128991 -2.48876 -2.2472 -0.128991 -2.48876 -2.24721 -8.30708e-012 -9.0191e-006 -5.27751e-005 13.6046 -0.136796 0.993449 -178.237 -29.4112 -86.4125 -27.64 -44.9382 4.83784 -11.7544 9.54166e-015 1.59028e-015 -29.4243 -54.3842 -32.9479 -178.886 21.8264 87.0068 -37.612 37.0072 2.36263 -5.86987 -3.18055e-015 1.59028e-015 -64.6146 67.991 67.725 -7.88445 9.03343 -179.723 -18.6491 -3.18055e-015 3.97569e-016 15.2924 5.95523 -1.77265 90 -4.96962e-017 3.97569e-016 -12.329 -8.26355 173.554 -21.7127 0 1.19271e-015 13.2254 -2.89149 3.47894 90 1.64931e-020 -7.95139e-016 
